<?xml version="1.0" encoding="UTF-8" standalone="no"?>
<svg width="24px" height="24px" viewBox="0 0 24 24" version="1.1" xmlns="http://www.w3.org/2000/svg" xmlns:xlink="http://www.w3.org/1999/xlink">
    <!-- Generator: Sketch 39 (31667) - http://www.bohemiancoding.com/sketch -->
    <title>current</title>
    <desc>Created with Sketch.</desc>
    <defs></defs>
    <g id="Android" stroke="none" stroke-width="1" fill="none" fill-rule="evenodd">
        <g id="Main-Screen---Single-Mailbox" transform="translate(-16.000000, -138.000000)">
            <g id="current" transform="translate(0.000000, 80.000000)">
                <g id="magazine_item" transform="translate(0.000000, 58.000000)">
                    <g id="ic_magazine_white_24px" transform="translate(16.000000, 0.000000)">
                        <g id="Group">
                            <polygon id="Shape" points="0 0 24 0 24 24 0 24"></polygon>
                            <path d="M18,2 L6,2 C4.9,2 4,2.9 4,4 L4,20 C4,21.1 4.9,22 6,22 L18,22 C19.1,22 20,21.1 20,20 L20,4 C20,2.9 19.1,2 18,2 Z M6,5.00087166 C6,4.4481055 6.45576096,4 7.00247329,4 L16.9975267,4 C17.5511774,4 18,4.44463086 18,5.00087166 L18,18.9991283 C18,19.5518945 17.544239,20 16.9975267,20 L7.00247329,20 C6.44882258,20 6,19.5553691 6,18.9991283 L6,5.00087166 Z M7,5 L12,5 L12,10 L7,10 L7,5 Z M7.35,12 L13.65,12 L14,12 L14,11 L13.65,11 L7.35,11 L7,11 L7,12 L7.35,12 Z M13.5,10 L16.5,10 L17,10 L17,9 L16.5,9 L13.5,9 L13,9 L13,10 L13.5,10 Z M13.6666667,8 L16.3333333,8 L17,8 L17,7 L16.3333333,7 L13.6666667,7 L13,7 L13,8 L13.6666667,8 Z M13.5,6 L16.5,6 L17,6 L17,5 L16.5,5 L13.5,5 L13,5 L13,6 L13.5,6 Z M8,6 L11,6 L11,9 L8,9 L8,6 Z" id="Combined-Shape" fill="#000000"></path>
                        </g>
                    </g>
                </g>
            </g>
        </g>
    </g>
</svg>