<?xml version="1.0" encoding="UTF-8" standalone="no"?>
<svg width="24px" height="24px" viewBox="0 0 24 24" version="1.1" xmlns="http://www.w3.org/2000/svg" xmlns:xlink="http://www.w3.org/1999/xlink">
    <!-- Generator: Sketch 39 (31667) - http://www.bohemiancoding.com/sketch -->
    <title>current</title>
    <desc>Created with Sketch.</desc>
    <defs></defs>
    <g id="Android" stroke="none" stroke-width="1" fill="none" fill-rule="evenodd">
        <g id="Main-Screen---Single-Mailbox" transform="translate(-16.000000, -110.000000)">
            <g id="current" transform="translate(0.000000, 80.000000)">
                <g id="letter_item" transform="translate(0.000000, 30.000000)">
                    <rect id="Rectangle-12" x="0" y="0" width="360" height="24"></rect>
                    <g id="ic_mail_outline_white_24px" transform="translate(16.000000, 0.000000)">
                        <g id="Group">
                            <polygon id="Shape" points="0 0 24 0 24 24 0 24"></polygon>
                            <path d="M20,4 L4,4 C2.9,4 2.01,4.9 2.01,6 L2,18 C2,19.1 2.9,20 4,20 L20,20 C21.1,20 22,19.1 22,18 L22,6 C22,4.9 21.1,4 20,4 L20,4 Z M20,18 L4,18 L4,8 L12,13 L20,8 L20,18 L20,18 Z M12,11 L4,6 L20,6 L12,11 L12,11 Z" id="Shape" fill="#000000"></path>
                        </g>
                    </g>
                </g>
            </g>
        </g>
    </g>
</svg>