<?xml version="1.0" encoding="UTF-8" standalone="no"?>
<svg width="24px" height="24px" viewBox="0 0 24 24" version="1.1" xmlns="http://www.w3.org/2000/svg" xmlns:xlink="http://www.w3.org/1999/xlink">
    <!-- Generator: Sketch 39 (31667) - http://www.bohemiancoding.com/sketch -->
    <title>current</title>
    <desc>Created with Sketch.</desc>
    <defs></defs>
    <g id="Android" stroke="none" stroke-width="1" fill="none" fill-rule="evenodd">
        <g id="Main-Screen---Single-Mailbox" transform="translate(-16.000000, -166.000000)">
            <g id="current" transform="translate(0.000000, 80.000000)">
                <g id="news_item" transform="translate(0.000000, 86.000000)">
                    <g id="ic_news_outline_white_24px" transform="translate(16.000000, 0.000000)">
                        <g id="Group">
                            <polygon id="Shape" points="0 0 24 0 24 24 0 24"></polygon>
                            <path d="M19,7 L20.2,7 C21.19,7 22,7.73125 22,8.625 L22,18.375 C22,19.26875 21.19,20 20.2,20 L11.55,20 L3.7,20 C2.765,20 2,19.1 2,18 L2.0085,6 C2.0085,4.9 2.765,4 3.7,4 L17.3,4 C18.235,4 19,4.9 19,6 L19,7 Z M19,9.00919741 C19.4855965,9.07552067 19.8597728,9.49249389 19.8597728,9.99754465 L19.8597728,17.0024554 C19.8597728,17.5072927 19.4862535,17.924541 19,17.9908226 L19,9.00919741 Z M4,7.00247329 C4,6.44882258 4.44748943,6 4.99850233,6 L16.0014977,6 C16.5529553,6 17,6.45576096 17,7.00247329 L17,16.9975267 C17,17.5511774 16.5525106,18 16.0014977,18 L4.99850233,18 C4.44704472,18 4,17.544239 4,16.9975267 L4,7.00247329 Z M5,9 L12,9 L12,14 L5,14 L5,9 Z M5.5,8 L15.5,8 L16,8 L16,7 L15.5,7 L5.5,7 L5,7 L5,8 L5.5,8 Z M13.5,10 L15.5,10 L16,10 L16,9 L15.5,9 L13.5,9 L13,9 L13,10 L13.5,10 Z M13.5,12 L15.5,12 L16,12 L16,11 L15.5,11 L13.5,11 L13,11 L13,12 L13.5,12 Z M13.5,14 L15.5,14 L16,14 L16,13 L15.5,13 L13.5,13 L13,13 L13,14 L13.5,14 Z M6.83333333,16 L14.1666667,16 L16,16 L16,15 L14.1666667,15 L6.83333333,15 L5,15 L5,16 L6.83333333,16 Z M6,10 L11,10 L11,13 L6,13 L6,10 Z" id="Combined-Shape" fill="#000000"></path>
                        </g>
                    </g>
                </g>
            </g>
        </g>
    </g>
</svg>