<?xml version="1.0" encoding="UTF-8" standalone="no"?>
<svg width="24px" height="24px" viewBox="0 0 24 24" version="1.1" xmlns="http://www.w3.org/2000/svg" xmlns:xlink="http://www.w3.org/1999/xlink">
    <!-- Generator: Sketch 39 (31667) - http://www.bohemiancoding.com/sketch -->
    <title>current</title>
    <desc>Created with Sketch.</desc>
    <defs></defs>
    <g id="Android" stroke="none" stroke-width="1" fill="none" fill-rule="evenodd">
        <g id="Main-Screen---Single-Mailbox" transform="translate(-16.000000, -194.000000)">
            <g id="current" transform="translate(0.000000, 80.000000)">
                <g id="parcel_item" transform="translate(0.000000, 114.000000)">
                    <g id="ic_parcel_white_24px" transform="translate(16.000000, 0.000000)">
                        <g id="Group">
                            <polygon id="Shape" points="0 0 24 0 24 24 0 24"></polygon>
                            <path d="M11,4 L5.93,4 L5.12,5 L11,5 L11,4 Z M13,4 L17.93,4 L18.87,5 L13,5 L13,4 Z M20.54,5.23 L19.15,3.55 C18.88,3.21 18.47,3 18,3 L6,3 C5.53,3 5.12,3.21 4.84,3.55 L3.46,5.23 C3.17,5.57 3,6.02 3,6.5 L3,19 C3,20.1 3.9,21 5,21 L19,21 C20.1,21 21,20.1 21,19 L21,6.5 C21,6.02 20.83,5.57 20.54,5.23 Z M5.12,8.49403653 C5.12,7.66890294 5.78319108,7 6.61766589,7 L17.3723341,7 C18.1994721,7 18.87,7.67438533 18.87,8.49403653 L18.87,17.1159641 C18.87,17.9410977 18.2068089,18.6100006 17.3723341,18.6100006 L6.61766589,18.6100006 C5.79052786,18.6100006 5.12,17.9356153 5.12,17.1159641 L5.12,8.49403653 Z M12.6127897,15.6089572 C12.6127897,15.0572487 13.0565063,14.6100006 13.6125972,14.6100006 L16.6129822,14.6100006 C17.1651606,14.6100006 17.6127897,15.0526609 17.6127897,15.6089572 L17.6127897,16.611044 C17.6127897,17.1627525 17.169073,17.6100006 16.6129822,17.6100006 L13.6125972,17.6100006 C13.0604187,17.6100006 12.6127897,17.1673403 12.6127897,16.611044 L12.6127897,15.6089572 Z" id="Combined-Shape" fill="#000000"></path>
                        </g>
                    </g>
                </g>
            </g>
        </g>
    </g>
</svg>