<?xml version="1.0" encoding="UTF-8" standalone="no"?>
<svg width="32px" height="32px" viewBox="0 0 32 32" version="1.1" xmlns="http://www.w3.org/2000/svg" xmlns:xlink="http://www.w3.org/1999/xlink">
    <!-- Generator: Sketch 39 (31667) - http://www.bohemiancoding.com/sketch -->
    <title>Status Bar</title>
    <desc>Created with Sketch.</desc>
    <defs></defs>
    <g id="Android" stroke="none" stroke-width="1" fill="none" fill-rule="evenodd">
        <g id="Status-Bar" fill="#FFFFFF">
            <g id="Logo" transform="translate(3.500000, 2.000000)">
                <path d="M0,23.8 L11.2,23.8 L11.2,28 L15.4,28 L15.4,23.8 L25.2,23.8 L25.2,10.85 C25.2,10.85 25.2,5.6 19.95,5.6 C18.9000094,5.6 18.2,5.6 18.2,5.6 L18.2,8.4 L19.95,8.4 C19.95,8.4 22.4,8.4 22.4,10.85 L22.4,14.7703604 L22.4,21 L11.2,21 L11.2,10.85 C11.2,10.85 11.2000371,8.4 10.1497777,8.4 C10.6728259,8.4 11.1958742,8.4 11.7189224,8.4 C12.4792816,8.4 14,8.4 14,8.4 L14,5.6 L5.6,5.6 C5.6,5.6 3.61653496e-16,5.6 0,10.85 L0,23.8 Z M2.8,21.0012166 L8.4,21 L8.4,10.85 C8.4,10.85 8.4,8.4 5.95,8.4 C5.6708967,8.4 5.25,8.4 5.25,8.4 C5.25,8.4 2.8,8.4 2.8,10.85 L2.8,21.0012166 Z M4.2,11.2 L4.2,14 L7,14 L7,11.2 L4.2,11.2 Z M14,12.6 L16.975,12.6 L16.975,2.84719694 L19.775,2.8 L19.775,0 L14,0 L14,12.6 Z" id="Combined-Shape"></path>
            </g>
        </g>
    </g>
</svg>