<?xml version="1.0" encoding="UTF-8" standalone="no"?>
<svg width="48px" height="48px" viewBox="0 0 48 48" version="1.1" xmlns="http://www.w3.org/2000/svg" xmlns:xlink="http://www.w3.org/1999/xlink">
    <!-- Generator: Sketch 3.8.3 (29802) - http://www.bohemiancoding.com/sketch -->
    <title>Slice 1</title>
    <desc>Created with Sketch.</desc>
    <defs>
        <rect id="path-1" x="0" y="0" width="40" height="40" rx="2"></rect>
        <filter x="-50%" y="-50%" width="200%" height="200%" filterUnits="objectBoundingBox" id="filter-3">
            <feOffset dx="0" dy="1" in="SourceAlpha" result="shadowOffsetInner1"></feOffset>
            <feComposite in="shadowOffsetInner1" in2="SourceAlpha" operator="arithmetic" k2="-1" k3="1" result="shadowInnerInner1"></feComposite>
            <feColorMatrix values="0 0 0 0 1   0 0 0 0 1   0 0 0 0 1  0 0 0 0.2 0" type="matrix" in="shadowInnerInner1" result="shadowMatrixInner1"></feColorMatrix>
            <feOffset dx="0" dy="-1" in="SourceAlpha" result="shadowOffsetInner2"></feOffset>
            <feComposite in="shadowOffsetInner2" in2="SourceAlpha" operator="arithmetic" k2="-1" k3="1" result="shadowInnerInner2"></feComposite>
            <feColorMatrix values="0 0 0 0 0.0980392157   0 0 0 0 0.133333333   0 0 0 0 0.478431373  0 0 0 0.2 0" type="matrix" in="shadowInnerInner2" result="shadowMatrixInner2"></feColorMatrix>
            <feMerge>
                <feMergeNode in="shadowMatrixInner1"></feMergeNode>
                <feMergeNode in="shadowMatrixInner2"></feMergeNode>
            </feMerge>
        </filter>
        <filter x="-50%" y="-50%" width="200%" height="200%" filterUnits="objectBoundingBox" id="filter-4">
            <feOffset dx="0" dy="1" in="SourceAlpha" result="shadowOffsetOuter1"></feOffset>
            <feColorMatrix values="0 0 0 0 0.0980392157   0 0 0 0 0.133333333   0 0 0 0 0.478431373  0 0 0 0.2 0" type="matrix" in="shadowOffsetOuter1" result="shadowMatrixOuter1"></feColorMatrix>
            <feMerge>
                <feMergeNode in="shadowMatrixOuter1"></feMergeNode>
                <feMergeNode in="SourceGraphic"></feMergeNode>
            </feMerge>
        </filter>
    </defs>
    <g id="Android" stroke="none" stroke-width="1" fill="none" fill-rule="evenodd">
        <g id="App-Icon">
            <g id="Path-177" transform="translate(4.000000, 4.000000)">
                <mask id="mask-2" fill="white">
                    <use xlink:href="#path-1"></use>
                </mask>
                <g id="Mask">
                    <use fill="#00478F" fill-rule="evenodd" xlink:href="#path-1"></use>
                    <use fill="black" fill-opacity="1" filter="url(#filter-3)" xlink:href="#path-1"></use>
                </g>
                <polygon fill-opacity="0.3" fill="#19227A" mask="url(#mask-2)" points="27.5 4 40.1728516 15.2397461 40.0966797 39.9868164 21.7999992 39.9868164 17.7999992 36 17.7999992 31 16 27.7666016 16 10.5 21 10.5 21 4"></polygon>
            </g>
            <g id="Logo" filter="url(#filter-4)" transform="translate(9.000000, 8.000000)">
                <polygon id="Path-73" fill="#D11C00" points="16 14.4 19.4 14.4 19.4 3.25393936 22.6 3.2 22.6 0 16 0"></polygon>
                <path d="M0,27.2 L12.8,27.2 L12.8,32 L17.6,32 L17.6,27.2 L28.8,27.2 L28.8,12.4 C28.8,12.4 28.8,6.4 22.8,6.4 C21.6000107,6.4 20.8,6.4 20.8,6.4 L20.8,9.6 L22.8,9.6 C22.8,9.6 25.6,9.6 25.6,12.4 L25.6,16.8804119 L25.6,24 L12.8,24 L12.8,12.4 C12.8,12.4 12.8000424,9.6 11.5997459,9.6 C12.1975153,9.6 12.7952847,9.6 13.3930541,9.6 C14.2620361,9.6 16,9.6 16,9.6 L16,6.4 L6.4,6.4 C6.4,6.4 4.13318282e-16,6.4 0,12.4 L0,27.2 Z M3.2,24.0013904 L9.6,24 L9.6,12.4 C9.6,12.4 9.6,9.6 6.8,9.6 C6.48102481,9.6 6,9.6 6,9.6 C6,9.6 3.2,9.6 3.2,12.4 L3.2,24.0013904 Z M4.8,12.8 L4.8,16 L8,16 L8,12.8 L4.8,12.8 Z" id="Combined-Shape" fill="#FFFFFF"></path>
            </g>
        </g>
    </g>
</svg>