<?xml version="1.0" encoding="UTF-8"?>
<svg width="96px" height="96px" viewBox="0 0 96 96" version="1.1" xmlns="http://www.w3.org/2000/svg" xmlns:xlink="http://www.w3.org/1999/xlink">
    <!-- Generator: Sketch 42 (36781) - http://www.bohemiancoding.com/sketch -->
    <title>ic_logo</title>
    <desc>Created with Sketch.</desc>
    <defs></defs>
    <g id="Android" stroke="none" stroke-width="1" fill="none" fill-rule="evenodd">
        <g id="Logo" transform="translate(-16.000000, -16.000000)">
            <g transform="translate(28.000000, 40.000000)">
                <path d="M7.10542736e-14,52 L32,52 L32,64 L44,64 L44,52 L72,52 L72,40.75 L72,15.75 L72,15 C72,15 72,2.92313181e-13 57,2.28364335e-13 C54.0000267,2.15011264e-13 40,3.41060513e-13 40,3.41060513e-13 L40,8 L57,8 C57,8 64,8 64,15 C64,15.198477 64,15.75 64,15.75 L72,15.75 L72,32.75 L64,32.75 L64,44 L32,44 L32,15 C32,15 32.0001059,8 28.9993649,8 C30.4937884,8 31.9882119,8 33.4826354,8 C35.6550902,8 40,8 40,8 L40,3.42051173e-13 L16,2.92313181e-13 C16,2.92313181e-13 7.20534743e-14,2.92313181e-13 7.10542736e-14,15 C7.10542736e-14,23.6965819 5.68434189e-14,44 5.68434189e-14,44 L8,44 L8,15 C8,8 15,8 15,8 C15,8 10,8 17,8 C24,8 24,15 24,15 L24,44 L5.68434189e-14,44 L7.10542736e-14,52 Z" id="Combined-Shape" fill="#FFFFFF"></path>
                <polygon id="Path-73" fill="#D11C00" transform="translate(58.000000, 24.000000) rotate(90.000000) translate(-58.000000, -24.000000) " points="49.75 42 58.25 42 58.25 14.1348484 66.25 14 66.25 6 49.75 6"></polygon>
                <polygon id="Combined-Shape" fill="#FFFFFF" points="12 16 12 24 20 24 20 16"></polygon>
            </g>
        </g>
    </g>
</svg>